<svg width="160" height="160" viewBox="0 0 160 160" fill="none" xmlns="http://www.w3.org/2000/svg">
<circle cx="80" cy="80" r="80" fill="#004A24"/>
<path fill-rule="evenodd" clip-rule="evenodd" d="M80.3173 140C50.971 140 27 116.174 27 86.6828C27 69.8305 34.6997 54.2857 48.2106 44.1162L48.7918 43.6804V20H79.3002V33.3656C79.5908 33.3656 79.8813 33.3656 80.1719 33.3656C109.518 33.3656 133.489 57.3365 133.489 86.6828C133.634 116.029 109.664 140 80.3173 140Z" fill="#004A24"/>
<path fill-rule="evenodd" clip-rule="evenodd" d="M64.9177 87.5551L75.959 76.6592V69.25L64.9177 80.1459V87.5551Z" fill="#FECA00"/>
<path fill-rule="evenodd" clip-rule="evenodd" d="M64.9177 59.9519L75.959 49.056V42.0826L64.9177 52.8332V59.9519Z" fill="#FECA00"/>
<path fill-rule="evenodd" clip-rule="evenodd" d="M64.9177 69.1041L75.959 58.2082V51.2349L64.9177 61.9855V69.1041Z" fill="#FECA00"/>
<path fill-rule="evenodd" clip-rule="evenodd" d="M61.7217 42.083L60.2689 40.7754V23.4873H58.5256V39.0321L57.0728 37.5793V23.4873H55.4746V35.9813L54.0218 34.5285V23.4873H52.2786V39.9038L63.4649 50.7997V23.4873H61.7217V42.083Z" fill="#FECA00"/>
<path fill-rule="evenodd" clip-rule="evenodd" d="M64.9177 78.2564L75.959 67.3605V60.3871L64.9177 71.1377V78.2564Z" fill="#FECA00"/>
<path fill-rule="evenodd" clip-rule="evenodd" d="M52.2786 76.6592L63.4649 87.5551V80.1459L52.2786 69.25V76.6592Z" fill="#FECA00"/>
<path fill-rule="evenodd" clip-rule="evenodd" d="M74.3608 34.5285L72.908 35.9813V23.4873H71.1648V37.5793L69.712 39.0321V23.4873H68.114V40.6302L66.5159 42.083V23.4873H64.9177V50.7997L75.959 39.9038V23.4873H74.3608V34.5285Z" fill="#FECA00"/>
<path fill-rule="evenodd" clip-rule="evenodd" d="M52.2786 49.056L63.4649 59.9519V52.8332L52.2786 42.0826V49.056Z" fill="#FECA00"/>
<path fill-rule="evenodd" clip-rule="evenodd" d="M52.2786 58.2082L63.4649 69.1041V61.9855L52.2786 51.2349V58.2082Z" fill="#FECA00"/>
<path fill-rule="evenodd" clip-rule="evenodd" d="M52.2786 67.3605L63.4649 78.2564V71.1377L52.2786 60.3871V67.3605Z" fill="#FECA00"/>
<path fill-rule="evenodd" clip-rule="evenodd" d="M118.38 73.0272H92.5207H91.3586C91.9397 72.1555 92.2302 71.1385 92.2302 69.9763C92.2302 66.7802 89.6152 64.1652 86.419 64.1652C83.2229 64.1652 80.6079 66.7802 80.6079 69.9763C80.6079 71.2838 81.0438 72.4461 81.7702 73.3177C81.3344 73.6083 80.8984 74.1894 80.8984 74.9158C80.8984 75.4969 81.1891 76.078 81.7702 76.5138C81.0438 77.5308 80.6079 78.693 80.6079 79.8553C80.6079 83.0514 83.2229 85.6664 86.419 85.6664C89.6152 85.6664 92.2302 83.0514 92.2302 79.8553C92.2302 78.693 91.9397 77.6761 91.3586 76.8044H96.2981H111.552V77.9666H109.518V79.71H111.552V81.4533H109.518V84.7947H111.552V83.3419H114.458V84.7947H116.492V81.4533H114.458V79.71H116.492V77.9666H114.458V76.8044H118.38C119.107 76.8044 119.833 76.2233 119.833 75.3516V74.4799C119.833 73.7535 119.107 73.0272 118.38 73.0272ZM89.4699 79.8553C89.4699 81.4533 88.1624 82.9061 86.419 82.9061C84.821 82.9061 83.3682 81.5986 83.3682 79.8553C83.3682 79.2741 83.5134 78.693 83.804 78.2572L84.6758 76.8044C84.0947 76.3686 83.804 75.6421 83.804 74.9158C83.804 74.1894 84.0947 73.463 84.6758 73.0272L83.804 71.5744C83.5134 71.1385 83.3682 70.5574 83.3682 69.9763C83.3682 68.3782 84.6757 66.9254 86.419 66.9254C88.0171 66.9254 89.4699 68.233 89.4699 69.9763C89.4699 71.1385 88.0171 74.0441 88.0171 74.0441V75.6421C88.1624 75.6421 89.4699 78.5478 89.4699 79.8553Z" fill="#FECA00"/>
<path fill-rule="evenodd" clip-rule="evenodd" d="M42.2542 69.5408V76.8047C42.2542 83.7781 45.3051 88.1364 47.0484 89.8798C48.0654 90.8967 58.3802 101.066 58.5254 101.211C61.7216 104.408 62.3026 105.425 63.029 107.168V99.1776C63.029 92.0589 59.397 89.2986 57.5084 87.41C53.15 83.1969 50.2445 80.4366 47.92 78.1122C43.4164 73.4633 42.2542 69.5408 42.2542 69.5408Z" fill="#FFFFFF"/>
<path fill-rule="evenodd" clip-rule="evenodd" d="M57.5084 105.279C53.15 101.066 50.2445 98.3053 47.92 95.9808C43.4164 91.4772 42.2542 88.5717 42.2542 88.5717V94.8186C42.2542 101.792 45.4503 106.15 47.0484 107.894C48.0654 108.911 58.3802 118.935 58.5254 119.08C61.7216 122.276 62.3026 123.729 63.029 125.472V117.046C62.8838 109.928 59.2517 107.022 57.5084 105.279Z" fill="#FFFFFF"/>
<path fill-rule="evenodd" clip-rule="evenodd" d="M80.3174 36.8531C79.4457 36.8531 78.7192 36.8531 77.9928 36.8531V40.1945C78.7192 40.1945 79.591 40.1945 80.3174 40.1945C106.032 40.1945 126.806 60.9694 126.806 86.6836C126.806 112.253 106.032 133.173 80.3174 133.173C54.6031 133.173 33.8283 112.398 33.8283 86.6836C33.8283 72.4464 40.2204 59.6619 50.3899 51.2357V46.8774C38.3318 56.0299 30.4868 70.4125 30.4868 86.6836C30.4868 114.141 52.8598 136.514 80.3174 136.514C107.775 136.514 130.148 114.141 130.148 86.6836C130.148 59.226 107.775 36.8531 80.3174 36.8531Z" fill="#FFFFFF"/>
<path fill-rule="evenodd" clip-rule="evenodd" d="M115.62 112.688C116.346 111.671 117.073 110.508 117.799 109.492V102.809H115.62V112.688Z" fill="#FFFFFF"/>
<path fill-rule="evenodd" clip-rule="evenodd" d="M122.012 100.339C122.303 99.3217 122.593 98.4501 122.884 97.4331H115.62V99.1765H116.782C118.671 99.1765 120.705 99.0312 122.012 100.339Z" fill="#FFFFFF"/>
<path d="M73.78 97.1437H71.8914V117.047H73.78V97.1437Z" fill="#FFFFFF"/>
<path fill-rule="evenodd" clip-rule="evenodd" d="M67.3875 93.3659H73.925C75.6683 93.3659 76.8306 93.6565 77.4117 94.3829C78.1381 94.964 78.4286 96.1262 78.4286 97.8695V116.465C78.4286 118.209 78.1381 119.371 77.4117 119.952C76.3948 120.969 74.506 120.969 72.9079 120.969C72.6174 120.969 72.1816 120.969 71.8911 120.969V129.831C72.4722 129.976 73.1986 130.121 73.7798 130.121V122.857C76.8306 122.857 78.7192 121.84 79.5909 119.807V130.557C79.7362 130.557 80.0266 130.557 80.1719 130.557C80.6077 130.557 81.0436 130.557 81.3342 130.557V98.3054C81.3342 96.562 81.6247 95.3998 82.351 94.6734C82.9322 93.947 84.2397 93.6565 85.8378 93.6565C87.5811 93.6565 89.9057 93.3659 91.2132 94.6734C91.7943 95.3998 92.23 96.562 92.23 98.3054V107.748H87.7265V97.579H85.8378V130.121C86.4189 129.976 87.1453 129.976 87.7265 129.831V109.637H92.23V128.814C93.1017 128.523 94.1187 128.233 94.9904 127.942V110.363C94.9904 108.33 95.4261 106.877 97.46 106.15L95.2809 93.947H99.7845L100.511 107.313H101.092L101.818 93.947H106.613L104.143 106.15C106.322 106.877 106.613 108.184 106.613 110.363V121.695C107.92 120.678 109.228 119.661 110.39 118.499V93.8017H123.61C123.755 93.2206 123.756 92.6395 123.901 92.0584H93.1017L93.5376 94.2376C92.5206 92.4942 90.7772 91.6225 88.0169 91.6225H86.1284C82.9323 91.6225 80.8983 92.9301 80.1719 95.5451C79.4455 92.7848 77.4117 91.4773 73.925 91.4773H65.4988V127.942C66.0799 128.233 66.8064 128.378 67.3875 128.669V93.3659ZM108.211 107.313L106.032 105.279L108.211 94.3829V107.313Z" fill="#FFFFFF"/>
<path fill-rule="evenodd" clip-rule="evenodd" d="M99.7847 125.909C100.511 125.618 101.092 125.182 101.819 124.892V109.928H99.7847V125.909Z" fill="#FFFFFF"/>
</svg>
