<svg width="160" height="160" viewBox="0 0 160 160" fill="none" xmlns="http://www.w3.org/2000/svg">
<path d="M0 80C0 35.8172 35.8172 0 80 0C124.183 0 160 35.8172 160 80C160 124.183 124.183 160 80 160C35.8172 160 0 124.183 0 80Z" fill="white"/>
<path fill-rule="evenodd" clip-rule="evenodd" d="M109.156 67.3964C103.768 82.8 86.9654 90.8707 71.6452 85.4458C56.3162 80.0158 48.2833 63.1438 53.68 47.7402C59.0944 32.3401 75.888 24.2614 91.1993 29.6907C106.519 35.1199 114.561 51.9963 109.156 67.3964Z" fill="url(#paint0_linear_1364_613)"/>
<path fill-rule="evenodd" clip-rule="evenodd" d="M110.832 105.717L110.841 108.715C110.858 114.393 97.7129 119.048 81.4607 119.111C65.2174 119.167 52.0364 114.61 52.0186 108.924L52.0098 105.939L110.832 105.717Z" fill="url(#paint1_linear_1364_613)"/>
<path fill-rule="evenodd" clip-rule="evenodd" d="M110.832 105.718C110.849 111.407 97.6951 116.063 81.4607 116.115C65.2086 116.17 52.0275 111.617 52.0098 105.939C51.992 100.253 65.1464 95.5978 81.3897 95.538C97.6241 95.4827 110.814 100.039 110.832 105.718Z" fill="url(#paint2_linear_1364_613)"/>
<path fill-rule="evenodd" clip-rule="evenodd" d="M52.0098 128.575C52.0098 127.742 65.1819 126.917 81.4253 126.917C97.6684 126.917 110.841 127.742 110.841 128.575V130.348C110.841 131.178 97.6684 131.999 81.4253 131.999C65.1819 131.999 52.0098 131.178 52.0098 130.348V128.575Z" fill="url(#paint3_linear_1364_613)"/>
<defs>
<linearGradient id="paint0_linear_1364_613" x1="74.2549" y1="67.2376" x2="119.27" y2="7.10896" gradientUnits="userSpaceOnUse">
<stop stop-color="#C72536"/>
<stop offset="1" stop-color="#E5762B"/>
</linearGradient>
<linearGradient id="paint1_linear_1364_613" x1="91.3931" y1="112.309" x2="111.867" y2="122.659" gradientUnits="userSpaceOnUse">
<stop stop-color="#8F2033"/>
<stop offset="1" stop-color="#B02837"/>
</linearGradient>
<linearGradient id="paint2_linear_1364_613" x1="77.7327" y1="107.683" x2="88.1676" y2="64.8672" gradientUnits="userSpaceOnUse">
<stop stop-color="#C72536"/>
<stop offset="1" stop-color="#EA8B31"/>
</linearGradient>
<linearGradient id="paint3_linear_1364_613" x1="75.2563" y1="129.706" x2="73.7125" y2="137.994" gradientUnits="userSpaceOnUse">
<stop stop-color="#8F2033"/>
<stop offset="1" stop-color="#B02837"/>
</linearGradient>
</defs>
</svg>
