<?xml version="1.0" standalone="no"?>
<!DOCTYPE svg PUBLIC "-//W3C//DTD SVG 20010904//EN"
 "http://www.w3.org/TR/2001/REC-SVG-20010904/DTD/svg10.dtd">
<svg version="1.0" xmlns="http://www.w3.org/2000/svg"
 width="3619.000000pt" height="3619.000000pt" viewBox="0 0 3619.000000 3619.000000"
 preserveAspectRatio="xMidYMid meet">

<g transform="translate(0.000000,3619.000000) scale(0.100000,-0.100000)"
fill="#000000" stroke="none">
<path d="M17161 34909 c-69 -143 -131 -320 -131 -371 0 -130 117 -248 245
-248 199 0 318 187 231 364 -28 58 -165 245 -245 336 l-40 45 -60 -126z"/>
<path d="M19291 34974 c-84 -94 -198 -251 -232 -320 -51 -104 -41 -196 32
-279 98 -111 279 -112 377 -1 96 109 81 234 -61 530 l-62 129 -54 -59z"/>
<path d="M17975 34419 c-165 -165 -374 -371 -465 -458 l-165 -158 -479 249
c-263 137 -480 247 -481 246 -2 -2 -114 -239 -249 -527 -136 -289 -248 -527
-251 -529 -2 -3 -216 19 -475 48 -260 28 -473 50 -475 48 -1 -1 26 -50 62
-108 81 -132 245 -463 316 -640 113 -278 215 -607 273 -873 14 -67 28 -128 30
-135 3 -9 17 -3 46 21 24 19 90 66 148 105 554 369 1299 604 2097 663 212 15
738 7 932 -15 333 -38 675 -110 962 -202 391 -125 799 -327 1060 -524 49 -37
81 -55 84 -47 2 6 9 39 15 72 93 488 339 1130 599 1568 39 66 64 117 57 117
-7 0 -215 -22 -461 -50 -246 -27 -456 -50 -465 -50 -13 0 -80 133 -265 528
-136 290 -248 528 -250 530 -1 1 -218 -109 -481 -247 l-478 -249 -463 456
c-254 251 -466 458 -470 459 -5 2 -143 -132 -308 -298z m774 -635 c456 -451
462 -457 489 -444 15 6 203 106 419 221 215 115 393 209 396 209 2 0 105 -215
227 -477 123 -263 224 -480 226 -481 1 -2 122 15 268 37 146 23 270 41 275 41
6 0 -28 -78 -75 -172 -84 -173 -177 -397 -229 -558 -15 -47 -29 -86 -29 -87
-1 -2 -90 41 -197 95 -609 305 -1300 484 -2023 523 -799 44 -1730 -156 -2465
-528 -101 -51 -185 -92 -186 -91 -1 2 -23 66 -49 143 -61 179 -128 339 -222
526 -41 82 -70 149 -64 149 6 0 130 -18 276 -41 146 -22 267 -39 268 -37 1 1
103 217 225 478 123 261 225 477 227 479 2 2 190 -96 419 -218 228 -121 418
-221 423 -221 4 0 214 205 467 455 253 250 462 454 466 455 3 0 213 -205 468
-456z"/>
<path d="M15365 34243 c-9 -153 -1 -299 20 -371 28 -95 115 -167 213 -179 210
-24 356 224 232 396 -36 49 -181 146 -332 222 -65 32 -120 59 -122 59 -2 0 -7
-57 -11 -127z"/>
<path d="M21055 34307 c-298 -155 -373 -234 -363 -381 9 -152 147 -259 295
-228 106 22 173 89 199 199 21 89 17 474 -5 473 -3 0 -60 -29 -126 -63z"/>
<path d="M18140 31863 c-1008 -34 -1951 -371 -2452 -875 -224 -226 -340 -475
-325 -701 2 -45 145 -887 315 -1872 171 -984 312 -1801 314 -1813 3 -22 -126
-99 -1462 -879 -806 -470 -1498 -879 -1537 -910 -154 -117 -333 -331 -444
-532 -94 -168 -168 -380 -185 -527 l-7 -54 266 0 265 0 17 78 c23 104 58 198
115 312 216 429 614 662 1089 637 515 -27 900 -264 1303 -802 67 -89 242 -348
356 -525 l42 -65 -2125 -3 c-1169 -1 -2125 -6 -2125 -11 0 -4 42 -95 94 -202
271 -559 404 -948 483 -1409 17 -100 18 -351 23 -4830 7 -5144 3 -4773 59
-5106 91 -533 297 -1010 612 -1414 93 -121 295 -329 422 -435 521 -438 1192
-715 1973 -814 233 -30 586 -44 889 -37 300 8 811 -7 966 -28 406 -55 641
-184 1072 -589 l128 -120 32 30 c18 16 83 77 145 136 372 352 635 491 1021
543 165 21 648 36 971 28 673 -15 1191 51 1697 217 750 246 1338 677 1728
1268 276 419 431 868 507 1471 9 72 13 1242 18 4825 l6 4730 21 125 c77 455
200 816 474 1391 54 115 99 213 99 219 0 7 -705 11 -2124 12 l-2124 3 120 185
c141 217 250 373 348 496 356 448 716 664 1173 706 233 21 430 -13 622 -107
119 -57 214 -124 301 -212 157 -156 289 -400 339 -625 l17 -78 264 0 c235 0
264 2 264 16 0 39 -43 221 -71 301 -105 298 -323 608 -553 788 -51 39 -628
381 -1536 910 -800 467 -1460 853 -1466 859 -9 8 61 428 267 1606 384 2203
362 2068 356 2175 -5 96 -39 219 -84 310 -276 547 -1151 1012 -2173 1154 -237
33 -583 52 -800 44z m400 -533 c716 -37 1315 -199 1723 -466 124 -81 285 -239
340 -334 l37 -64 -23 -12 c-12 -6 -543 -217 -1179 -469 l-1156 -457 -1154 455
c-634 251 -1166 461 -1181 466 l-28 11 33 60 c183 333 756 626 1460 745 379
64 742 85 1128 65z m-1501 -1810 l1071 -365 0 -1687 c0 -929 -2 -1688 -5
-1688 -6 0 -1568 821 -1577 829 -4 3 -133 735 -288 1626 -154 891 -282 1628
-284 1638 -3 10 -1 17 4 15 4 -2 490 -167 1079 -368z m3284 -1270 c-156 -899
-287 -1638 -291 -1641 -10 -9 -1569 -829 -1576 -829 -3 0 -6 759 -6 1688 l0
1687 1078 367 c592 201 1078 365 1078 365 1 -1 -126 -738 -283 -1637z m-3076
-2631 c527 -287 976 -530 999 -541 l41 -21 988 538 c543 296 993 538 1000 538
21 0 1606 -926 1598 -933 -4 -4 -38 -15 -76 -25 -93 -24 -263 -111 -377 -192
-105 -75 -367 -329 -477 -463 -158 -192 -373 -497 -571 -807 l-53 -83 -224 0
-225 0 0 -49 c0 -67 -26 -199 -57 -284 -153 -432 -539 -764 -1026 -882 -287
-70 -692 -75 -972 -11 -367 84 -675 276 -879 546 -147 195 -246 451 -246 638
l0 42 -223 0 -224 0 -68 108 c-410 645 -768 1067 -1088 1282 -96 64 -240 133
-327 156 -36 10 -68 20 -72 24 -6 4 1580 936 1599 940 1 0 433 -235 960 -521z
m-719 -2971 c71 -90 253 -264 349 -335 220 -163 468 -281 759 -361 l137 -37
19 -70 c43 -156 144 -327 271 -458 l70 -72 2 -220 c1 -202 4 -228 28 -320 47
-178 96 -283 195 -414 125 -164 326 -295 548 -356 l61 -17 13 -52 c69 -270
282 -502 544 -590 17 -6 17 -8 4 -24 -197 -232 -479 -550 -520 -586 -66 -57
-185 -120 -269 -142 -40 -11 -99 -16 -159 -15 -52 0 -540 52 -1085 114 l-990
113 4 67 c7 150 -92 253 -297 309 -63 17 -105 21 -232 20 -85 0 -180 -5 -210
-10 -30 -6 -56 -9 -57 -8 -1 0 176 496 393 1101 216 605 394 1105 394 1111 0
16 -477 1025 -485 1026 -4 0 -211 -174 -460 -386 -449 -382 -454 -387 -459
-429 -3 -23 -19 -546 -36 -1162 -17 -616 -32 -1121 -33 -1122 -1 0 -100 46
-220 104 -205 100 -223 106 -293 111 -94 6 -150 -14 -217 -77 -89 -83 -132
-200 -125 -346 3 -79 8 -101 36 -158 60 -122 128 -156 322 -164 l125 -5 2 -44
c2 -63 21 -114 54 -150 l29 -30 -21 -20 c-63 -56 -64 -192 0 -236 21 -15 20
-15 -10 -44 -65 -60 -79 -163 -34 -240 l25 -43 -26 -78 c-82 -242 17 -471 236
-545 206 -69 387 31 515 286 25 48 45 95 45 103 0 11 7 14 24 9 14 -3 699
-215 1523 -470 824 -255 1544 -478 1601 -495 283 -84 522 -78 756 19 144 60
264 152 729 559 246 215 450 391 453 391 3 0 3 -11 0 -25 -17 -69 -25 -232
-15 -326 30 -293 167 -522 380 -634 65 -34 68 -37 63 -68 -14 -108 -25 -243
-31 -394 l-6 -173 -4084 0 -4083 0 0 2643 c0 1790 -4 2679 -11 2757 -26 283
-99 606 -214 941 -36 107 -69 202 -72 212 -5 16 94 17 1995 17 l2000 0 50 -62z
m7547 25 c-149 -411 -221 -678 -272 -1013 -16 -107 -17 -306 -20 -2817 l-3
-2703 -304 0 -303 0 -55 75 c-130 173 -283 536 -418 995 l-23 75 -18 -52 c-72
-211 -39 -569 82 -879 21 -55 55 -126 73 -157 l35 -57 -386 2 -386 3 -43 85
c-82 160 -187 516 -268 908 -19 90 -37 166 -39 169 -9 8 -52 -66 -74 -127 -36
-98 -46 -185 -41 -366 8 -235 56 -453 137 -615 l29 -59 -255 0 -256 0 6 193
c6 183 27 362 61 508 10 44 11 61 2 64 -6 1 -42 11 -81 20 -38 9 -116 39 -172
66 -165 79 -260 190 -282 330 -5 30 -7 56 -6 58 2 2 24 -13 49 -34 68 -56 130
-75 239 -75 l92 0 108 85 c59 47 107 87 107 88 0 1 -35 3 -78 5 -256 10 -445
153 -491 370 -52 249 87 550 339 734 l45 33 -101 7 c-227 15 -377 64 -519 171
-96 72 -166 173 -201 292 -27 90 -25 264 5 378 12 49 21 90 19 91 -166 114
-225 181 -303 341 -61 124 -79 187 -96 327 -22 191 21 368 123 500 l29 37 -35
49 c-99 137 -146 292 -153 507 -6 167 9 284 50 397 l23 65 -110 11 c-184 20
-346 71 -489 154 -68 40 -187 133 -187 146 0 4 46 30 102 57 258 127 518 332
679 538 l44 57 2002 0 2002 0 -14 -37z m-7981 -997 l143 -313 -371 -1063
c-203 -584 -372 -1058 -373 -1053 -2 6 39 323 92 705 52 381 95 708 95 725 0
69 -58 76 -79 11 -5 -18 -92 -334 -193 -703 -101 -368 -184 -661 -185 -650 -2
11 26 507 60 1101 l64 1082 34 29 c19 17 151 130 294 252 211 180 261 218 268
205 5 -8 73 -156 151 -328z m2912 253 c39 -57 158 -165 243 -222 128 -87 315
-161 455 -182 45 -7 48 -9 42 -34 -18 -73 -18 -251 -1 -351 18 -110 61 -265
94 -344 l21 -47 -21 -42 c-59 -114 -99 -291 -99 -432 0 -157 49 -353 126 -506
l36 -72 -64 -64 c-63 -65 -63 -65 -110 -59 -112 12 -266 102 -386 224 -131
134 -277 386 -356 615 -19 53 -36 91 -39 83 -3 -8 -9 -57 -13 -110 -4 -53 -11
-96 -16 -96 -5 0 -37 14 -71 31 -277 139 -431 382 -454 712 l-6 99 59 -30
c113 -57 358 -132 374 -115 9 10 45 242 38 248 -3 3 -39 14 -81 24 -294 76
-520 268 -628 536 l-28 70 207 6 c220 7 382 28 547 73 50 13 93 24 96 25 4 1
19 -17 35 -40z m1109 -2584 c-38 -157 10 -389 116 -568 98 -165 291 -314 442
-342 20 -4 39 -11 42 -15 3 -4 -11 -34 -30 -66 -19 -32 -47 -89 -62 -127 -26
-63 -38 -78 -153 -185 -69 -64 -141 -131 -160 -149 l-35 -32 -1 127 c0 147
-17 244 -74 413 -83 249 -211 461 -392 645 l-89 91 172 167 172 168 33 -34 33
-33 -14 -60z m-5447 -105 c34 -16 109 -56 165 -89 56 -33 120 -68 141 -78 l39
-18 -44 -7 c-24 -4 -127 -10 -229 -14 -215 -7 -250 0 -288 56 -19 28 -23 44
-19 80 11 100 110 129 235 70z m1484 -289 c58 -18 74 -66 41 -121 -47 -81
-150 -63 -428 75 l-130 64 240 -3 c146 -2 255 -8 277 -15z m-704 -16 c144 -34
227 -94 354 -258 57 -72 124 -154 151 -181 26 -28 47 -59 47 -70 0 -42 -69
-358 -101 -461 -38 -123 -29 -120 -157 -60 -238 112 -323 363 -205 604 l36 74
-41 38 c-49 46 -133 74 -195 64 -23 -4 -76 -16 -116 -27 -137 -37 -224 -11
-275 82 -13 25 -26 65 -28 89 l-3 44 55 19 c157 54 356 72 478 43z m4167 -310
c164 -208 283 -457 326 -680 15 -78 18 -274 6 -346 -7 -44 -16 -54 -185 -209
-147 -135 -292 -253 -292 -237 0 2 9 39 20 82 44 171 44 386 1 597 -49 238
-172 528 -286 673 l-54 70 132 132 132 133 68 -68 c38 -37 97 -103 132 -147z
m-3106 -20 c113 -14 217 -28 230 -31 l24 -5 -6 -187 c-7 -257 -51 -453 -141
-629 -58 -114 -31 -110 -273 -39 -117 34 -215 64 -218 68 -3 3 9 50 28 104 60
173 111 430 133 672 4 39 9 72 12 72 2 0 97 -11 211 -25z m851 -108 l185 -22
9 -70 c20 -152 -27 -491 -99 -710 -38 -115 -110 -265 -129 -265 -20 1 -447
126 -449 132 -1 3 18 40 41 81 115 200 195 576 175 814 l-6 73 44 -6 c24 -3
127 -16 229 -27z m-2182 -52 l133 0 -7 -50 c-3 -27 -8 -53 -10 -56 -9 -15
-110 -31 -159 -26 -108 11 -185 68 -185 138 0 37 6 39 53 15 36 -18 60 -21
175 -21z m2934 -41 l147 -18 8 -45 c4 -26 8 -154 7 -286 0 -251 -9 -332 -56
-510 -25 -94 -78 -229 -113 -290 l-25 -42 -148 42 c-81 23 -180 52 -220 64
l-73 22 19 27 c37 52 93 174 127 276 72 214 109 450 103 660 l-3 128 40 -5
c22 -3 106 -14 187 -23z m832 -149 c60 -123 101 -244 133 -394 25 -114 27
-146 27 -331 0 -189 -2 -213 -26 -301 -14 -52 -40 -123 -57 -157 l-31 -62 -69
0 c-84 0 -217 22 -336 56 -49 14 -91 27 -93 28 -1 2 13 36 32 77 124 262 150
649 70 1046 -13 67 -24 124 -24 125 0 2 39 4 88 4 56 1 108 9 147 21 l60 20
17 -21 c10 -12 38 -61 62 -111z m-3968 -137 c41 -18 72 -23 186 -26 133 -4
136 -5 141 -28 8 -43 -72 -98 -160 -110 -118 -15 -223 51 -223 141 0 25 2 45
4 45 2 0 25 -10 52 -22z m58 -344 c48 -13 103 -24 122 -24 42 0 49 -12 28 -52
-57 -114 -183 -140 -250 -53 -42 55 -47 177 -6 160 9 -4 57 -18 106 -31z
m8746 -3734 c0 -1540 -2 -1811 -15 -1938 -84 -804 -467 -1458 -1100 -1882
-108 -72 -195 -125 -195 -117 0 2 63 132 140 290 77 157 140 290 140 296 0 7
-45 11 -140 11 l-141 0 -192 -387 -192 -388 -56 -22 c-95 -38 -324 -101 -477
-132 -304 -62 -535 -81 -1007 -81 -1288 -1 -1682 -95 -2155 -514 l-111 -98
-75 69 c-181 163 -300 247 -459 323 -342 163 -781 219 -1730 220 -541 0 -812
27 -1170 116 -82 20 -343 101 -352 108 -2 1 83 176 187 389 105 212 190 388
190 391 0 3 -64 6 -143 6 l-144 0 -164 -336 c-90 -184 -167 -338 -171 -341 -7
-3 -211 98 -226 112 -2 1 58 125 132 274 75 149 136 275 136 281 0 6 -53 10
-140 10 l-140 0 -102 -205 c-57 -113 -106 -205 -110 -205 -13 0 -154 117 -245
204 -384 365 -655 900 -737 1456 -34 228 -36 329 -36 2103 l0 1777 5500 0
5500 0 0 -1790z"/>
<path d="M16324 29341 c14 -21 452 -345 614 -452 158 -105 539 -305 740 -388
l72 -30 0 177 0 177 -706 260 c-389 143 -711 262 -717 264 -5 2 -7 -1 -3 -8z"/>
<path d="M16480 28455 c123 -128 473 -382 690 -501 140 -77 554 -274 576 -274
2 0 3 79 2 176 l-3 176 -585 209 c-322 115 -616 221 -655 235 l-70 25 45 -46z"/>
<path d="M16596 27608 c52 -171 372 -414 823 -625 161 -76 313 -143 322 -143
5 0 9 78 9 173 l0 174 -527 201 c-291 111 -552 211 -581 222 l-54 20 8 -22z"/>
<path d="M19560 29101 c-366 -135 -684 -254 -708 -263 l-42 -16 0 -171 c0
-142 2 -171 14 -171 39 0 503 225 676 328 183 108 774 543 735 540 -5 0 -309
-111 -675 -247z"/>
<path d="M19465 28264 l-650 -232 -3 -176 c-1 -97 0 -176 3 -176 13 0 274 120
417 191 266 133 464 260 674 430 102 83 218 188 213 193 -2 2 -296 -102 -654
-230z"/>
<path d="M19390 27406 l-575 -221 -3 -173 c-2 -139 0 -172 11 -172 19 0 224
93 414 189 299 149 487 272 612 401 67 68 125 158 119 184 -2 9 -167 -50 -578
-208z"/>
<path d="M17470 24444 l0 -276 47 42 c99 87 261 140 428 140 l86 0 -4 -482
c-3 -446 -5 -490 -25 -576 -29 -128 -57 -211 -92 -266 l-30 -46 400 0 c220 0
400 3 400 6 0 3 -9 19 -21 35 -53 74 -100 251 -119 448 -5 57 -10 279 -10 494
l0 390 118 -6 c179 -9 304 -53 396 -138 24 -21 46 -39 50 -39 3 0 6 124 6 275
l0 275 -815 0 -815 0 0 -276z"/>
<path d="M21525 22628 c-9 -29 -21 -97 -27 -150 -26 -215 39 -432 180 -610
175 -219 473 -376 755 -395 l87 -6 0 109 c0 60 3 119 6 131 5 19 0 22 -53 33
-81 17 -203 56 -303 97 -375 154 -610 445 -622 771 -2 40 -4 72 -5 72 -1 0 -9
-24 -18 -52z"/>
<path d="M22534 20498 c-15 -56 -19 -108 -18 -218 0 -131 3 -153 28 -230 35
-105 55 -145 119 -238 116 -168 326 -319 538 -387 96 -30 227 -55 290 -55 l49
0 0 129 0 128 -62 7 c-159 18 -300 69 -427 155 -184 125 -360 383 -451 660
-16 51 -30 99 -30 107 0 8 -4 14 -9 14 -5 0 -17 -33 -27 -72z"/>
<path d="M21845 19491 c-7 -89 -3 -144 16 -251 47 -257 211 -497 427 -623 94
-55 174 -83 318 -112 19 -4 20 -11 20 -147 0 -195 33 -307 129 -438 166 -226
496 -323 800 -235 137 40 130 26 86 157 -31 92 -42 113 -57 112 -10 -1 -54 -6
-97 -13 -244 -35 -472 98 -557 326 -29 78 -36 199 -17 289 12 55 56 168 84
214 2 3 -63 5 -144 5 -165 1 -226 13 -351 71 -233 107 -433 318 -575 606 -34
70 -65 127 -68 127 -4 1 -10 -39 -14 -88z"/>
<path d="M21411 18894 c-51 -189 -32 -423 49 -601 85 -187 254 -360 445 -456
124 -61 327 -104 440 -93 75 8 156 24 172 34 9 6 2 38 -26 127 -32 102 -40
120 -57 118 -179 -21 -258 -10 -383 53 -149 74 -265 186 -391 376 -70 105
-159 277 -204 395 l-34 87 -11 -40z"/>
<path d="M15268 15357 c221 -222 402 -408 402 -414 0 -20 -362 -514 -487 -665
-102 -123 -124 -196 -84 -278 22 -46 179 -256 236 -316 81 -85 148 -80 354 27
150 77 150 77 331 57 89 -10 113 -9 158 4 28 9 52 14 52 11 0 -2 -13 -57 -29
-121 -33 -131 -66 -310 -77 -420 l-7 -73 -36 5 c-20 4 -207 27 -416 52 -416
49 -453 50 -538 1 -69 -39 -708 -534 -760 -589 -120 -127 -165 -315 -118 -499
16 -64 276 -629 299 -650 4 -4 120 89 257 207 138 118 258 219 268 225 16 9
17 8 9 -8 -5 -10 -64 -131 -130 -268 -137 -284 -156 -344 -149 -475 7 -151 49
-236 213 -431 57 -68 104 -126 104 -129 0 -3 -76 -159 -169 -347 l-170 -343
148 0 148 0 109 227 c108 225 110 229 204 331 181 197 315 405 352 544 l12 47
-53 47 c-112 101 -111 113 38 426 48 100 69 114 149 98 80 -15 872 -188 962
-209 101 -25 172 -26 229 -6 62 21 88 45 166 147 39 51 86 101 105 113 48 27
112 25 525 -20 511 -57 804 -51 1163 21 222 45 475 137 586 213 24 17 47 31
49 31 3 0 23 -33 45 -72 23 -40 72 -113 111 -163 103 -132 189 -258 196 -288
4 -15 0 -46 -9 -74 -9 -26 -144 -354 -301 -728 l-284 -680 406 -3 c224 -1 410
1 414 5 4 5 112 269 239 588 127 319 245 606 261 638 27 54 100 160 106 154 1
-2 -56 -310 -127 -685 -72 -375 -130 -686 -130 -692 0 -6 139 -10 398 -10
l398 0 111 743 c62 408 115 770 118 803 7 80 -9 184 -40 243 -13 25 -60 82
-105 126 -190 186 -263 359 -349 825 -23 124 -51 263 -62 308 -10 46 -17 88
-14 93 9 14 105 39 149 39 83 -1 146 -49 221 -170 16 -25 72 -128 125 -230
126 -241 160 -295 295 -475 223 -296 420 -483 598 -565 297 -139 574 -38 847
306 47 58 58 79 51 92 -55 99 -229 312 -581 707 -427 480 -637 700 -745 777
-118 84 -247 142 -413 185 -99 26 -121 28 -297 28 -162 -1 -203 -4 -277 -22
-108 -28 -196 -63 -270 -109 l-58 -35 -112 45 c-185 73 -287 91 -518 91 -226
-1 -314 -14 -629 -96 l-194 -51 -587 36 c-322 20 -601 41 -620 46 -40 11 -110
65 -110 84 0 8 33 23 78 36 42 12 87 26 99 31 l22 8 -25 93 c-178 667 -557
1159 -1061 1381 -124 54 -209 79 -420 123 -16 3 -25 16 -34 47 -22 83 -75 181
-118 220 -23 21 -46 37 -51 35 -4 -2 -64 -68 -132 -148 l-124 -145 -69 -17
c-39 -10 -88 -23 -111 -29 -40 -12 -50 -9 -570 184 -291 109 -533 197 -539
197 -5 0 172 -181 393 -403z m1178 41 c10 -20 19 -67 22 -120 3 -48 7 -88 9
-88 32 0 176 -39 238 -65 507 -210 864 -724 901 -1299 7 -106 20 -130 118
-224 84 -81 172 -136 248 -156 44 -11 239 -27 649 -51 322 -19 615 -35 650
-35 52 0 99 11 241 59 214 72 321 97 458 110 216 20 422 -19 618 -118 l63 -32
142 70 c184 91 287 121 437 128 417 18 804 -198 1194 -666 88 -107 346 -448
515 -683 130 -181 129 -167 24 -253 -154 -127 -285 -124 -411 9 -62 65 -102
143 -149 289 -42 132 -73 197 -141 293 -55 78 -192 226 -253 275 l-38 30 29
-64 c16 -35 38 -92 50 -128 28 -82 109 -441 99 -437 -14 5 -132 143 -199 233
-74 100 -145 212 -304 480 -166 280 -245 365 -380 407 -143 44 -289 -5 -446
-150 l-55 -50 37 -108 c44 -128 74 -245 122 -482 67 -323 104 -446 172 -572
67 -122 162 -255 213 -298 95 -80 110 -153 71 -335 -15 -71 -200 -1210 -200
-1232 0 -3 -67 -5 -150 -5 -113 0 -150 3 -150 13 0 6 45 265 101 574 73 407
99 573 94 599 -10 55 -91 130 -200 186 -49 25 -166 78 -260 118 -442 189 -646
315 -842 525 l-90 95 -24 -26 c-79 -84 -249 -181 -409 -232 -218 -70 -439 -96
-795 -96 -288 0 -421 10 -740 51 -110 14 -238 26 -285 26 -146 0 -257 -48
-322 -138 -18 -26 -49 -65 -69 -87 -58 -66 -57 -67 -671 66 -295 64 -551 116
-570 116 -62 0 -106 -19 -145 -64 -45 -51 -263 -499 -270 -556 -8 -59 13 -103
84 -180 l66 -71 -41 -82 c-45 -88 -156 -230 -177 -225 -21 5 -224 239 -245
284 -46 95 -47 217 -1 332 40 100 331 695 357 729 15 20 49 46 78 59 51 23 55
23 644 33 327 5 596 12 599 15 3 3 -76 138 -176 301 -190 309 -212 349 -229
430 -41 193 -20 379 96 850 61 247 82 366 81 464 -1 80 -1 80 -34 -33 -25 -86
-97 -156 -191 -186 -63 -21 -87 -23 -271 -21 l-203 1 -123 -65 c-149 -78 -178
-82 -236 -30 -21 20 -56 60 -77 90 -43 63 -49 117 -19 175 10 19 154 193 321
387 167 194 304 356 304 361 0 4 -117 104 -260 221 -143 118 -263 217 -265
221 -2 4 150 -50 340 -120 l344 -127 126 159 c70 87 131 158 136 158 4 0 16
-14 25 -32z m-726 -2378 c212 -28 394 -53 406 -55 15 -3 24 -18 33 -56 7 -28
41 -107 75 -175 35 -68 59 -124 54 -124 -4 0 -191 39 -415 86 -456 96 -492 99
-574 50 -96 -57 -474 -352 -493 -384 -32 -56 -25 -127 23 -230 23 -49 41 -93
40 -98 0 -5 -58 -53 -129 -106 l-129 -97 -34 62 c-109 196 -140 282 -141 387
0 78 18 136 64 200 20 27 636 503 711 548 29 18 65 30 119 41 3 1 178 -22 390
-49z m243 -566 c249 -58 454 -108 456 -110 2 -2 -212 -4 -476 -4 -459 0 -484
-1 -548 -21 -100 -30 -149 -82 -225 -230 -34 -66 -63 -119 -65 -119 -8 0 -92
173 -105 216 -7 25 -9 48 -4 57 12 20 370 286 409 303 16 7 47 13 68 14 21 0
242 -48 490 -106z m4526 -956 c75 -31 136 -61 136 -65 0 -4 -12 -28 -26 -53
-15 -25 -136 -316 -270 -647 l-243 -603 -154 0 c-84 0 -151 3 -149 8 21 33
497 1186 502 1215 14 73 -25 150 -159 316 -6 8 43 -14 108 -49 66 -35 181 -90
255 -122z"/>
<path d="M16133 14860 c-53 -22 -78 -111 -48 -170 33 -64 95 -78 146 -32 60
54 44 175 -27 202 -30 12 -42 12 -71 0z"/>
<path d="M15556 10318 c-104 -211 -190 -389 -193 -396 -4 -10 25 -12 141 -10
l146 3 190 387 c105 213 190 389 190 392 0 3 -64 6 -143 6 l-144 0 -187 -382z"/>
<path d="M16302 10658 c-11 -24 -97 -199 -191 -390 -94 -190 -171 -349 -171
-352 0 -4 66 -5 146 -4 l146 3 189 389 c104 214 189 391 189 392 0 2 -65 4
-145 4 l-144 0 -19 -42z"/>
<path d="M16816 10528 c-46 -95 -131 -271 -190 -390 -58 -119 -106 -219 -106
-222 0 -3 65 -6 143 -6 l144 0 187 383 c104 210 190 388 193 395 4 9 -28 12
-141 12 l-146 0 -84 -172z"/>
<path d="M17289 10316 c-104 -212 -189 -389 -189 -395 0 -8 43 -11 143 -9
l142 3 183 369 c100 204 185 380 188 393 l6 23 -142 0 -142 0 -189 -384z"/>
<path d="M17869 10316 c-104 -211 -189 -389 -189 -395 0 -8 44 -11 141 -11
l141 0 189 385 c104 212 189 390 189 395 0 6 -56 10 -141 10 l-140 0 -190
-384z"/>
<path d="M18633 10688 c-17 -22 -373 -753 -373 -766 0 -9 36 -12 140 -12 l140
0 190 387 c105 212 190 390 190 395 0 14 -276 10 -287 -4z"/>
<path d="M19211 10687 c-10 -13 -381 -764 -381 -773 0 -3 66 -3 146 -2 l146 3
189 388 c104 214 189 390 189 393 0 2 -62 4 -139 4 -103 0 -141 -3 -150 -13z"/>
<path d="M21629 10314 c-104 -213 -189 -390 -189 -395 0 -15 276 -11 287 4 17
21 373 751 373 765 0 9 -35 12 -141 12 l-140 0 -190 -386z"/>
<path d="M10675 31289 c-207 -20 -398 -77 -560 -169 -161 -91 -340 -296 -411
-470 -16 -38 -32 -70 -35 -70 -4 0 -51 28 -105 61 -198 125 -436 222 -624 255
-130 22 -343 15 -455 -16 -95 -26 -240 -92 -321 -148 -67 -45 -234 -189 -234
-201 0 -4 32 -29 70 -56 97 -65 252 -215 368 -354 107 -128 201 -254 462 -616
387 -537 636 -817 927 -1044 160 -124 391 -258 547 -316 l48 -19 -48 -24 c-91
-46 -242 -102 -355 -132 -761 -198 -1571 42 -2175 645 -178 178 -343 388 -464
593 -30 51 -58 92 -62 92 -21 0 -278 -428 -388 -645 -144 -285 -234 -537 -282
-794 -32 -168 -32 -468 0 -626 80 -398 280 -743 637 -1100 124 -124 316 -291
418 -364 26 -19 47 -37 47 -40 0 -3 -85 -47 -188 -98 -636 -313 -1145 -684
-1662 -1209 -380 -386 -617 -682 -1184 -1479 -595 -837 -825 -1125 -1190
-1491 -402 -402 -789 -687 -1283 -945 -119 -62 -138 -75 -136 -95 1 -13 22
-64 47 -114 158 -319 388 -479 747 -521 131 -15 382 -6 584 20 82 11 150 19
152 18 1 -2 -23 -39 -54 -83 -198 -277 -351 -603 -452 -963 -55 -194 -100
-409 -161 -766 -67 -394 -112 -600 -166 -765 -167 -509 -478 -830 -1014 -1045
-63 -25 -116 -47 -117 -49 -8 -8 85 -264 133 -365 169 -357 396 -547 696 -580
83 -9 228 0 297 19 19 5 36 8 38 7 5 -6 -65 -103 -113 -156 -27 -30 -114 -109
-194 -176 -142 -120 -298 -270 -289 -278 2 -3 40 -25 84 -51 155 -89 359 -162
534 -191 150 -25 380 -17 513 19 440 117 795 465 1026 1006 120 280 211 619
267 999 20 132 43 178 108 210 38 19 56 22 92 17 61 -10 133 -61 170 -120 27
-44 30 -58 30 -130 0 -76 -3 -88 -54 -200 -158 -352 -229 -652 -238 -1017 -8
-285 17 -511 88 -794 95 -380 217 -692 539 -1375 361 -765 467 -1043 537
-1400 23 -120 26 -160 27 -350 0 -187 -3 -229 -23 -320 -31 -146 -66 -245
-131 -377 l-55 -113 53 0 c76 0 368 18 577 36 599 50 996 153 1239 319 l66 45
39 -78 c89 -179 170 -421 202 -612 7 -41 13 -141 14 -223 l0 -147 30 5 c17 4
66 18 110 32 291 94 473 279 537 548 11 50 23 97 25 105 3 8 18 -20 35 -63 67
-175 198 -398 337 -577 85 -110 300 -331 421 -432 569 -478 1309 -760 2174
-828 123 -10 346 -14 346 -7 0 2 -25 42 -55 88 -81 122 -227 423 -278 574
-111 324 -157 597 -217 1265 -57 643 -101 915 -205 1254 -121 398 -349 816
-621 1140 -36 43 -62 82 -57 86 4 4 60 47 123 95 179 137 219 171 309 258 109
106 165 180 223 294 86 168 125 340 135 592 5 131 4 153 -8 148 -375 -166
-852 -225 -1419 -176 -807 70 -1509 395 -1894 876 -92 114 -141 204 -150 273
-16 127 80 183 206 119 21 -11 81 -62 131 -112 51 -51 122 -114 158 -140 327
-233 793 -284 1340 -147 209 53 409 131 409 159 0 28 -59 172 -107 261 -61
112 -130 214 -192 282 l-51 56 52 44 c29 24 94 75 143 114 120 92 238 205 291
280 59 82 104 176 107 222 l2 37 -81 27 c-138 46 -556 121 -861 153 l-63 7 60
66 c71 77 124 179 145 277 22 106 18 277 -10 401 l-5 21 -89 -23 c-179 -46
-299 -59 -551 -58 -187 1 -263 5 -375 22 -263 41 -521 116 -722 212 -217 103
-338 204 -400 337 -33 68 -38 87 -38 153 0 126 57 200 153 200 53 0 72 -10
142 -73 30 -28 91 -74 135 -103 310 -201 881 -372 1455 -436 174 -19 597 -16
745 5 360 53 646 168 823 331 l43 39 -63 22 c-192 67 -430 236 -535 379 -24
32 -43 64 -43 71 0 8 22 15 58 19 164 19 407 90 569 166 247 116 475 321 580
523 37 70 77 190 87 258 l7 46 -214 6 c-440 14 -773 56 -973 122 -69 24 -174
74 -174 85 0 5 17 14 38 21 62 20 237 105 289 140 126 87 226 214 282 359 17
44 31 85 31 93 0 10 -32 17 -117 25 -437 46 -787 216 -1005 490 -137 173 -230
393 -256 608 l-8 71 100 -48 c513 -251 1179 -249 1562 7 290 192 390 522 279
911 -12 41 -21 54 -38 57 -12 2 -51 9 -87 16 -217 39 -427 204 -530 414 -64
131 -85 230 -77 376 7 130 33 234 91 355 153 324 469 632 936 911 74 44 279
159 455 254 1451 785 2074 1204 2595 1745 224 233 371 438 495 690 135 276
205 566 205 852 0 334 -89 588 -304 874 -207 274 -465 510 -1031 940 -467 355
-648 517 -730 652 -22 37 -45 66 -51 67 -6 0 -46 -19 -90 -42 -475 -250 -666
-534 -611 -908 17 -118 60 -260 117 -392 l39 -88 -102 -2 c-500 -11 -881 53
-1161 194 -236 119 -389 284 -460 498 -123 373 23 792 437 1250 l95 105 -62 7
c-33 4 -119 14 -191 22 -168 21 -404 27 -530 15z m-151 -597 c-159 -396 -160
-752 -4 -1067 216 -436 745 -750 1440 -856 173 -26 470 -35 655 -20 256 20
730 64 733 67 2 1 -48 97 -112 211 -131 236 -203 390 -242 520 -22 71 -27 110
-28 203 -1 105 1 120 25 170 25 51 81 120 99 120 4 0 14 -8 21 -17 46 -55 317
-267 659 -513 102 -73 232 -170 290 -215 1282 -1008 966 -2105 -960 -3327
-340 -215 -679 -410 -1245 -713 -439 -235 -525 -284 -705 -403 -638 -419
-1001 -866 -1107 -1362 -28 -133 -24 -365 10 -491 66 -251 163 -414 353 -599
109 -105 242 -199 359 -251 73 -33 75 -35 75 -69 -1 -125 -133 -225 -365 -276
-120 -27 -348 -24 -480 6 -267 60 -472 155 -933 431 -118 71 -219 129 -224
129 -17 0 11 -667 37 -879 79 -633 332 -1034 822 -1303 41 -22 72 -43 69 -45
-3 -3 -149 -58 -326 -122 -177 -64 -320 -121 -319 -127 5 -15 487 -390 599
-466 200 -134 418 -222 665 -268 185 -34 181 -31 84 -68 -176 -67 -370 -101
-741 -128 -128 -9 -235 -18 -236 -20 -5 -4 116 -377 150 -464 41 -104 103
-226 145 -283 19 -27 33 -50 31 -52 -2 -2 -77 -9 -168 -15 -354 -26 -711 16
-1039 122 -177 57 -306 113 -540 235 -344 178 -427 219 -498 243 -263 88 -570
-42 -692 -293 -54 -110 -71 -182 -72 -303 -1 -254 102 -479 315 -689 331 -329
838 -506 1544 -541 78 -4 142 -8 142 -10 0 -1 -52 -89 -115 -194 -63 -105
-115 -193 -115 -196 0 -10 246 -126 375 -177 150 -59 252 -90 381 -116 l82
-16 -74 -65 c-41 -36 -137 -131 -214 -211 l-139 -146 177 -153 c97 -84 178
-156 180 -160 5 -14 -146 -23 -268 -17 -234 12 -398 78 -740 297 -187 120
-233 145 -324 175 -172 58 -324 25 -487 -105 -346 -275 -310 -678 99 -1102
190 -197 414 -363 697 -517 650 -355 1494 -540 2179 -480 65 5 121 7 125 4 8
-9 -156 -165 -275 -262 -55 -43 -199 -155 -322 -247 l-223 -168 123 -127 c504
-517 790 -1053 922 -1721 38 -194 63 -388 96 -751 54 -594 86 -794 168 -1044
25 -77 74 -195 108 -263 l63 -122 -57 6 c-607 61 -1132 270 -1594 635 -122 97
-366 339 -462 459 -143 179 -285 411 -381 620 -44 97 -127 336 -158 455 l-13
50 -164 -280 c-90 -154 -178 -304 -195 -332 l-32 -53 -47 133 c-27 72 -78 200
-114 282 -78 177 -385 788 -398 792 -6 2 -20 -18 -33 -44 -32 -67 -121 -198
-178 -262 -117 -133 -313 -250 -494 -295 -132 -34 -227 -45 -420 -53 l-166 -6
-6 174 c-16 481 -138 849 -607 1834 -438 920 -575 1341 -604 1860 -18 310 48
663 180 963 100 228 108 256 108 422 1 134 -1 152 -28 234 -80 243 -288 424
-574 497 -269 69 -460 -43 -608 -355 -58 -124 -110 -278 -209 -621 -90 -314
-128 -431 -182 -570 -142 -361 -336 -590 -574 -679 -66 -24 -190 -51 -208 -45
-6 2 3 24 20 49 64 95 131 244 191 425 33 100 149 547 144 553 -2 1 -91 -30
-197 -71 -229 -88 -300 -112 -394 -131 -236 -49 -403 -18 -533 99 -45 40 -112
127 -112 145 0 3 19 17 43 30 73 40 219 141 296 204 320 260 529 587 665 1037
42 139 80 316 181 829 205 1046 251 1143 1028 2143 131 170 237 311 234 313
-3 3 -103 -13 -224 -35 -424 -79 -791 -133 -1088 -162 -237 -23 -543 -13 -603
20 -7 4 45 44 139 105 454 297 845 636 1203 1045 227 259 412 505 815 1080
519 740 771 1054 1156 1436 611 608 1345 1109 2308 1575 130 63 237 117 237
120 0 3 -113 89 -252 190 -321 236 -468 351 -631 492 -391 340 -598 657 -662
1011 -14 79 -16 132 -12 270 6 186 21 277 77 449 40 126 142 370 165 396 2 2
25 -21 51 -50 374 -413 844 -649 1479 -745 172 -26 709 -26 910 0 417 54 873
172 1250 322 147 59 398 173 462 211 l48 27 -135 34 c-689 172 -1445 609
-1985 1148 -248 247 -426 483 -555 736 -57 111 -130 285 -130 309 0 6 34 10
88 10 237 0 497 -126 996 -483 82 -59 150 -106 152 -104 1 1 37 103 79 226 41
123 91 257 110 298 99 213 236 344 425 404 30 9 56 16 57 15 1 -1 -19 -52 -43
-114z"/>
<path d="M13660 27959 c-120 -77 -432 -230 -619 -304 -876 -348 -2115 -592
-3326 -656 -290 -15 -943 -7 -1165 15 -209 21 -456 59 -585 90 -55 14 -101 23
-103 21 -2 -2 25 -19 60 -39 357 -199 831 -318 1528 -382 238 -21 898 -30
1145 -15 173 11 390 34 440 47 39 10 -288 -283 -555 -497 -426 -341 -895 -672
-1850 -1307 -891 -592 -1321 -888 -1695 -1167 -775 -579 -1230 -1039 -1440
-1455 -19 -38 -35 -72 -35 -75 0 -3 76 72 169 168 444 455 838 730 1331 930
135 55 580 210 586 204 2 -2 -94 -149 -213 -328 -386 -578 -616 -946 -803
-1284 -112 -202 -281 -546 -359 -730 -235 -553 -569 -1081 -976 -1541 -48 -55
-206 -225 -350 -379 -380 -404 -493 -541 -621 -747 -160 -259 -269 -579 -303
-893 -25 -230 -24 -235 24 -100 37 107 128 312 178 405 212 395 409 637 887
1097 295 284 494 490 609 633 42 53 89 111 104 130 19 24 26 29 23 15 -12 -46
-47 -271 -65 -415 -79 -614 -87 -1386 -20 -1920 55 -439 171 -910 317 -1285
l35 -90 1 -420 c2 -448 10 -554 62 -875 104 -645 356 -1231 707 -1648 58 -69
182 -199 164 -172 -138 204 -183 277 -249 405 -209 406 -347 879 -419 1438
-21 164 -39 666 -25 703 5 13 27 -19 82 -117 97 -172 327 -518 483 -727 392
-526 816 -1026 1701 -2002 865 -954 1232 -1374 1459 -1667 35 -46 65 -83 68
-83 7 0 -15 35 -145 231 -279 419 -539 745 -1332 1674 -808 946 -1135 1356
-1487 1865 -394 570 -701 1149 -872 1645 -48 139 -131 415 -131 437 0 5 28
-15 63 -45 162 -142 337 -221 582 -263 110 -19 481 -29 700 -19 86 4 155 9
153 11 -2 1 -69 12 -148 24 -673 98 -1069 289 -1328 638 -116 156 -132 194
-153 355 -25 196 -47 454 -59 697 -44 886 215 1897 763 2985 l111 220 7 -100
c16 -253 102 -541 240 -803 300 -575 821 -980 1439 -1121 188 -43 189 -39 13
52 -293 153 -508 310 -728 531 -522 525 -755 1192 -644 1846 34 205 60 275
151 418 202 317 483 723 696 1007 127 169 475 606 479 601 2 -2 -1 -35 -7 -74
-17 -124 15 -283 87 -427 150 -298 498 -593 827 -699 43 -14 80 -26 83 -26 2
0 -25 36 -61 79 -109 135 -180 274 -228 449 -30 107 -32 414 -5 542 79 371
294 753 658 1168 49 56 87 102 83 102 -15 0 -317 -162 -450 -241 -138 -81
-373 -235 -469 -306 -45 -34 -41 -27 41 62 348 380 913 882 1389 1235 507 377
885 611 1805 1120 590 326 843 484 1085 677 173 138 381 353 484 501 12 17 21
32 19 32 -2 -1 -46 -28 -98 -61z"/>
<path d="M25525 31293 c-69 -5 -410 -46 -414 -49 -2 -2 33 -43 77 -91 261
-284 411 -540 469 -798 24 -106 21 -309 -6 -410 -104 -390 -442 -624 -1036
-717 -98 -15 -199 -21 -414 -25 -274 -5 -284 -5 -278 13 3 11 27 69 52 131 76
186 98 284 99 448 1 132 -1 145 -30 226 -17 48 -51 118 -77 156 -96 144 -287
299 -508 413 l-97 50 -30 -53 c-74 -129 -245 -291 -572 -542 -350 -268 -494
-380 -588 -457 -418 -343 -684 -652 -811 -942 -176 -400 -136 -931 105 -1416
134 -267 292 -478 559 -745 253 -254 525 -472 900 -724 389 -262 737 -466
1565 -918 668 -365 842 -479 1092 -721 225 -219 368 -440 424 -657 23 -90 25
-114 21 -240 -5 -156 -24 -229 -90 -347 -110 -196 -321 -347 -530 -379 -40 -6
-77 -13 -83 -14 -15 -4 -51 -153 -65 -269 -31 -263 66 -507 261 -660 369 -290
1064 -310 1618 -46 58 28 102 44 102 37 0 -7 -7 -55 -15 -107 -41 -248 -158
-476 -339 -655 -223 -222 -530 -353 -925 -396 -61 -7 -111 -15 -111 -19 0 -19
43 -128 75 -189 95 -180 246 -300 505 -400 l73 -28 -35 -20 c-183 -108 -553
-169 -1135 -189 -199 -7 -203 -7 -198 -28 2 -12 9 -45 14 -74 85 -430 592
-807 1201 -893 47 -6 87 -13 89 -15 11 -10 -71 -113 -145 -183 -126 -120 -303
-230 -441 -275 -29 -10 -53 -21 -53 -25 0 -11 115 -102 184 -146 167 -106 432
-189 721 -226 148 -19 547 -16 730 5 475 55 915 173 1250 336 142 69 216 117
309 199 39 35 85 65 105 71 111 29 203 -82 188 -226 -9 -84 -65 -194 -134
-262 -187 -186 -586 -345 -1033 -413 -115 -18 -191 -22 -370 -23 -241 -1 -361
12 -542 58 -62 16 -95 20 -100 13 -15 -23 -31 -211 -25 -299 10 -165 68 -299
178 -414 l40 -40 -108 -13 c-439 -49 -850 -134 -911 -186 -2 -2 10 -36 26 -77
58 -150 163 -274 375 -440 72 -57 148 -118 169 -137 l38 -33 -58 -63 c-68 -72
-134 -169 -196 -286 -44 -85 -113 -256 -105 -263 14 -12 220 -89 305 -114 241
-72 437 -102 669 -102 408 0 670 98 924 345 141 137 218 175 291 145 40 -17
60 -57 60 -122 0 -102 -79 -227 -264 -416 -405 -414 -1020 -675 -1763 -747
-197 -19 -555 -19 -741 0 -245 26 -491 83 -629 145 -36 17 -67 30 -69 30 -11
0 -2 -267 12 -357 56 -379 194 -585 606 -903 l175 -134 -81 -101 c-388 -478
-612 -977 -721 -1607 -34 -195 -49 -328 -90 -780 -40 -436 -56 -574 -91 -768
-74 -409 -209 -759 -411 -1069 l-54 -84 158 7 c486 21 886 94 1295 235 855
296 1544 903 1834 1616 l32 80 7 -40 c13 -80 65 -232 102 -295 47 -80 148
-183 233 -238 70 -45 175 -89 287 -121 l70 -19 6 177 c8 262 62 475 192 763
l57 126 63 -44 c274 -191 753 -299 1530 -344 99 -5 217 -12 263 -15 45 -3 82
-3 82 0 0 3 -25 56 -55 118 -62 128 -97 227 -128 365 -29 132 -31 484 -3 637
70 388 171 648 601 1560 442 936 593 1480 572 2060 -14 364 -82 648 -248 1020
-49 113 -51 119 -48 194 3 65 9 85 34 127 42 67 120 114 191 114 99 0 154 -65
174 -204 73 -525 221 -989 418 -1316 199 -329 469 -569 762 -675 285 -103 604
-96 915 20 81 30 279 127 313 153 l23 18 -103 101 c-57 56 -159 148 -228 206
-69 57 -150 135 -181 173 -62 76 -95 124 -85 124 3 0 48 -7 98 -16 396 -69
718 128 927 567 50 105 131 327 131 359 0 12 -18 24 -62 40 -99 35 -294 131
-393 193 -326 203 -528 465 -660 854 -58 171 -94 344 -200 953 -120 692 -286
1138 -574 1545 -31 44 -60 85 -63 90 -4 6 39 4 110 -6 785 -114 1177 41 1399
550 l32 75 -142 74 c-505 263 -868 531 -1288 951 -380 381 -590 642 -1177
1468 -582 818 -847 1148 -1232 1534 -500 502 -983 851 -1613 1166 l-208 104
73 56 c213 164 483 421 612 583 163 205 300 448 365 645 197 609 53 1236 -480
2090 -148 236 -122 225 -204 90 -133 -222 -307 -438 -495 -618 -378 -362 -845
-592 -1340 -658 -134 -18 -440 -16 -569 5 -202 32 -413 96 -561 171 l-65 33
30 12 c295 113 558 293 841 575 221 220 374 410 752 935 355 493 543 705 743
839 l59 39 -83 79 c-282 266 -627 362 -996 278 -174 -40 -388 -132 -565 -244
-54 -34 -100 -60 -102 -59 -1 2 -27 53 -57 113 -178 353 -486 547 -947 595
-88 9 -272 11 -365 3z m558 -516 c237 -86 357 -252 502 -692 36 -110 69 -206
74 -213 6 -11 54 19 200 122 342 241 567 366 756 421 114 33 272 45 280 23 8
-21 -52 -173 -119 -306 -234 -457 -678 -922 -1231 -1289 -431 -286 -912 -505
-1334 -607 -57 -14 -106 -28 -109 -31 -9 -9 335 -170 508 -238 893 -352 1816
-440 2531 -243 417 115 724 291 1018 583 74 73 135 132 136 131 11 -13 76
-154 111 -240 92 -230 134 -431 134 -649 0 -228 -40 -395 -145 -598 -174 -336
-437 -593 -1139 -1109 -152 -112 -276 -207 -276 -210 0 -4 57 -33 128 -66 160
-74 515 -255 692 -354 716 -398 1293 -830 1790 -1338 360 -368 596 -665 1100
-1384 383 -547 603 -838 804 -1065 369 -416 731 -732 1186 -1034 l174 -115
-44 -14 c-64 -20 -350 -27 -527 -13 -276 23 -663 78 -1117 162 -120 22 -225
39 -234 37 -9 -2 63 -102 208 -288 480 -613 607 -795 725 -1035 143 -290 202
-506 355 -1300 40 -203 87 -432 107 -508 149 -597 414 -1000 853 -1299 52 -35
116 -77 143 -92 26 -15 47 -30 47 -33 0 -14 -61 -100 -92 -130 -54 -52 -145
-101 -218 -117 -179 -41 -358 -5 -760 152 -85 34 -156 57 -158 52 -5 -14 108
-447 150 -574 44 -133 129 -319 178 -391 18 -26 29 -49 26 -52 -11 -11 -149
17 -215 44 -235 94 -403 283 -545 616 -63 147 -111 292 -215 652 -161 556
-223 699 -365 841 -127 126 -259 161 -439 115 -288 -74 -495 -247 -571 -479
-71 -215 -56 -391 54 -632 288 -631 264 -1280 -79 -2138 -80 -199 -160 -376
-346 -767 -319 -671 -430 -948 -514 -1280 -54 -216 -72 -353 -72 -550 l-1
-138 -181 6 c-360 12 -580 76 -775 224 -116 88 -231 230 -309 379 -15 30 -30
54 -33 54 -9 0 -365 -715 -418 -840 -39 -92 -99 -247 -138 -359 -2 -8 -90 132
-195 310 -104 178 -193 327 -198 332 -4 4 -15 -28 -25 -70 -110 -471 -441
-1013 -836 -1370 -438 -396 -968 -653 -1530 -742 -139 -22 -270 -36 -270 -29
0 3 22 47 49 99 158 299 219 582 281 1299 69 792 161 1177 391 1630 164 324
348 577 623 858 111 113 128 134 115 146 -8 7 -115 89 -239 182 -257 193 -426
332 -520 428 l-65 67 60 -8 c99 -13 638 -9 755 5 168 21 384 60 536 97 994
245 1851 851 1984 1405 46 196 3 361 -132 505 -123 132 -253 203 -388 212
-140 10 -257 -37 -520 -207 -348 -226 -537 -294 -810 -292 -223 2 -223 -9 -12
172 100 85 181 158 181 161 1 3 -94 99 -209 214 -116 114 -209 209 -208 210 2
1 37 8 78 15 106 18 254 63 400 122 136 55 335 152 344 167 4 6 -45 95 -109
199 -63 104 -115 192 -115 194 0 3 73 8 163 11 448 18 805 100 1122 257 350
174 587 425 679 719 141 449 -123 869 -549 874 -136 2 -210 -26 -548 -207
-510 -273 -814 -375 -1247 -417 -121 -11 -522 -7 -597 7 l-32 6 41 60 c68 101
133 251 217 500 l80 237 -42 5 c-23 3 -109 10 -192 16 -377 26 -572 60 -759
132 l-81 31 130 24 c306 55 527 146 765 317 111 79 549 419 549 427 1 3 -137
57 -306 119 -170 62 -319 117 -333 122 -23 9 -20 12 49 49 129 70 252 161 362
266 281 271 419 597 474 1117 15 143 41 793 33 802 -3 2 -108 -57 -234 -132
-568 -340 -865 -454 -1185 -454 -161 0 -350 44 -455 105 -54 32 -108 94 -122
144 -22 72 -19 77 65 116 193 89 425 286 538 455 408 613 203 1349 -549 1976
-253 210 -482 356 -991 629 -432 232 -676 367 -910 503 -1293 753 -1995 1444
-2130 2097 -103 499 135 994 695 1444 52 42 163 125 245 186 305 222 572 425
654 497 121 106 124 108 156 78 42 -40 85 -137 91 -210 17 -185 -66 -415 -304
-839 -45 -80 -80 -146 -78 -148 5 -6 598 -60 802 -74 408 -28 872 50 1243 208
633 270 959 752 890 1318 -15 126 -60 295 -112 425 -30 74 -40 110 -31 110 7
0 42 -10 77 -23z"/>
<path d="M22806 28007 c34 -57 161 -206 273 -317 296 -294 561 -469 1466 -968
951 -524 1508 -893 2120 -1404 299 -250 713 -638 918 -861 82 -91 87 -98 42
-64 -96 70 -331 224 -465 304 -132 78 -440 243 -454 243 -4 0 34 -46 83 -102
299 -342 501 -666 600 -964 59 -177 72 -250 78 -434 4 -143 2 -179 -17 -270
-38 -185 -118 -353 -236 -494 -35 -42 -59 -76 -53 -76 23 0 168 55 240 91 325
162 610 461 708 742 29 84 54 232 46 273 -12 58 -14 115 -4 109 12 -8 366
-452 471 -590 197 -262 477 -666 676 -976 72 -113 106 -176 121 -227 181 -606
45 -1274 -369 -1817 -153 -200 -319 -364 -525 -520 -148 -111 -249 -173 -440
-272 -170 -88 -169 -88 20 -47 643 142 1176 567 1476 1179 114 232 186 482
208 719 6 60 12 111 14 112 6 6 274 -546 338 -696 405 -952 574 -1763 530
-2545 -12 -217 -41 -520 -65 -694 -12 -89 -19 -108 -61 -178 -264 -435 -671
-657 -1402 -764 -84 -13 -151 -24 -149 -26 2 -2 104 -8 227 -14 601 -26 945
55 1197 283 29 27 56 47 58 45 12 -12 -79 -320 -157 -528 -269 -719 -722
-1458 -1458 -2379 -205 -256 -438 -535 -861 -1030 -627 -734 -843 -997 -1088
-1325 -121 -163 -323 -458 -382 -560 -31 -52 -27 -49 71 75 255 322 571 685
1322 1513 213 236 493 547 621 690 855 959 1397 1662 1698 2199 l63 113 8
-105 c4 -58 3 -191 -3 -297 -43 -811 -286 -1597 -652 -2108 l-51 -70 48 45
c79 75 223 257 317 400 411 624 615 1483 577 2435 l-8 210 54 150 c234 648
336 1220 352 1970 10 521 -25 1018 -108 1509 -11 65 -19 120 -17 121 2 2 47
-52 100 -118 130 -163 298 -340 629 -659 394 -381 555 -565 741 -848 99 -150
257 -461 313 -615 20 -55 40 -109 45 -120 27 -61 -6 240 -46 423 -87 395 -282
741 -630 1123 -37 41 -163 175 -280 299 -409 435 -590 654 -803 973 -210 314
-339 558 -541 1017 -232 527 -531 1042 -1117 1918 -122 182 -221 332 -219 332
1 0 102 -33 223 -74 271 -91 436 -158 618 -249 377 -188 655 -396 1033 -773
116 -117 212 -210 212 -208 0 2 -20 45 -45 94 -189 377 -641 839 -1335 1364
-390 295 -680 496 -1622 1125 -802 535 -1065 713 -1353 919 -483 345 -882 663
-1155 919 l-85 80 80 -12 c201 -32 365 -40 845 -40 386 0 525 4 680 18 499 46
850 113 1175 224 127 43 345 144 395 182 24 19 22 19 -55 0 -197 -47 -498 -89
-785 -109 -189 -13 -819 -13 -1046 0 -1239 71 -2514 332 -3367 691 -159 66
-429 203 -540 273 -48 30 -84 50 -81 43z"/>
<path d="M4595 29610 c-14 -28 -40 -92 -57 -143 -29 -82 -32 -104 -32 -207 0
-138 17 -197 100 -336 55 -92 63 -121 42 -142 -25 -25 -63 -12 -148 49 -159
114 -256 149 -406 149 -80 0 -234 -27 -251 -44 -11 -10 37 -158 75 -230 66
-126 173 -221 307 -271 36 -14 122 -36 190 -50 69 -14 136 -30 149 -35 37 -14
50 -44 34 -78 -19 -39 -78 -40 -209 -6 -187 50 -318 35 -403 -44 -37 -35 -88
-115 -110 -173 l-18 -47 37 -58 c52 -81 158 -183 230 -221 93 -49 167 -66 275
-66 146 0 296 45 435 128 31 19 61 32 66 29 5 -3 9 -22 9 -43 0 -63 30 -221
62 -321 69 -220 189 -398 380 -568 40 -35 213 -169 383 -297 268 -201 446
-343 520 -417 19 -18 17 -18 -35 3 -279 112 -650 201 -1028 246 -185 22 -871
26 -1077 5 -597 -59 -1076 -152 -1930 -373 l-393 -102 -22 -46 c-102 -209
-200 -435 -195 -452 10 -30 163 -166 256 -228 48 -31 114 -68 147 -81 l61 -24
-127 -131 c-169 -173 -234 -256 -419 -533 -139 -209 -269 -382 -317 -421 -16
-13 -14 -17 16 -48 113 -118 323 -231 528 -284 110 -29 318 -36 440 -15 198
35 442 140 619 267 46 33 85 59 86 57 1 -2 33 -57 70 -123 168 -295 353 -584
494 -770 84 -111 237 -275 257 -275 34 0 389 405 790 902 488 606 708 861 978
1131 397 399 815 718 1239 946 53 29 97 57 97 62 0 15 -131 206 -201 295 -193
241 -412 431 -794 687 -312 209 -461 336 -554 471 -84 122 -151 311 -169 476
l-8 76 61 -13 c148 -31 322 -7 465 64 99 50 229 178 282 278 50 95 88 231 91
324 l2 75 -70 30 c-64 28 -79 31 -180 31 -101 0 -115 -2 -175 -30 -36 -16
-102 -57 -146 -91 -131 -100 -177 -114 -204 -63 -15 28 -4 39 93 95 121 69
221 148 273 217 87 117 114 196 121 365 l6 122 -64 0 c-96 -1 -212 -25 -285
-59 -90 -42 -159 -114 -217 -227 -26 -51 -54 -94 -62 -98 -8 -3 -26 -1 -40 4
-28 11 -27 3 -25 175 1 127 -15 198 -63 289 -48 92 -169 206 -294 280 -8 4
-21 -11 -38 -44z m286 -3510 c159 -16 415 -59 507 -86 184 -53 304 -144 272
-204 -6 -10 -61 -57 -123 -103 -330 -245 -688 -617 -1022 -1062 -273 -363
-581 -855 -778 -1242 -29 -57 -55 -103 -58 -103 -13 0 -108 147 -151 235 -187
373 -207 877 -53 1318 13 37 22 67 19 67 -7 0 -257 -156 -569 -355 -424 -270
-535 -331 -698 -388 -86 -29 -101 -31 -227 -31 -74 0 -145 5 -158 10 -23 10
-22 10 29 84 189 270 489 584 861 899 l137 116 -116 23 c-152 30 -266 68 -400
135 -129 65 -329 195 -317 206 15 13 709 209 980 277 392 98 757 165 1054 193
63 6 131 13 150 14 86 9 568 6 661 -3z"/>
<path d="M31880 29623 c-30 -21 -92 -73 -136 -118 -135 -134 -182 -258 -169
-451 7 -109 0 -138 -34 -147 -31 -8 -56 17 -96 98 -93 189 -241 277 -470 279
l-90 1 2 -110 c3 -246 112 -424 344 -559 156 -92 172 -110 124 -142 -36 -24
-59 -14 -176 74 -136 101 -189 124 -301 130 -93 5 -189 -17 -254 -57 -30 -18
-31 -22 -27 -68 31 -327 199 -561 472 -656 106 -37 256 -47 364 -24 l69 14 -7
-61 c-14 -126 -58 -283 -106 -379 -97 -190 -248 -332 -613 -577 -396 -265
-596 -439 -798 -690 -70 -88 -208 -286 -208 -300 0 -3 33 -23 73 -45 406 -218
802 -510 1167 -862 290 -279 530 -552 1033 -1176 179 -221 384 -472 457 -557
171 -199 359 -400 374 -400 7 0 53 42 103 93 163 167 379 480 618 897 43 74
84 145 91 157 14 22 15 21 124 -52 447 -303 892 -347 1307 -131 141 74 134 49
68 237 -96 275 -185 512 -206 548 -48 81 -184 246 -313 378 -76 79 -137 144
-135 146 2 1 40 20 84 40 132 63 130 31 14 293 -56 126 -143 315 -194 421 -92
189 -93 192 -131 202 -215 57 -661 162 -879 206 -409 82 -740 129 -1090 155
-179 13 -644 13 -811 0 -393 -31 -807 -119 -1124 -239 l-105 -40 60 56 c84 78
308 256 515 407 415 306 550 445 666 691 52 109 97 274 115 423 l12 102 31
-21 c64 -43 218 -110 297 -130 112 -29 284 -23 374 11 123 47 244 149 313 264
l34 55 -35 73 c-47 96 -95 151 -165 185 -50 25 -68 28 -147 27 -63 0 -120 -8
-192 -27 -159 -42 -213 -33 -213 36 0 36 32 51 165 76 220 42 332 95 436 209
55 59 119 168 119 202 0 9 -29 56 -65 103 -64 85 -67 87 -108 88 -188 4 -260
-23 -487 -181 -60 -42 -104 -39 -108 7 -2 24 9 54 48 119 104 177 127 329 75
507 -25 89 -83 227 -94 227 -3 -1 -31 -17 -61 -37z m660 -3537 c350 -43 642
-99 1030 -197 349 -88 949 -261 951 -274 3 -13 -158 -121 -264 -178 -152 -82
-337 -143 -522 -173 l-40 -6 36 -31 c19 -18 100 -89 180 -158 202 -176 402
-372 532 -519 106 -121 244 -298 279 -358 l18 -30 -63 -11 c-188 -33 -368 13
-622 158 -66 37 -268 162 -450 278 -351 223 -529 333 -537 333 -3 0 7 -35 23
-78 121 -342 130 -789 23 -1116 -47 -144 -191 -410 -229 -423 -6 -2 -30 36
-54 84 -299 606 -832 1378 -1265 1831 -218 229 -354 351 -553 499 -100 73
-113 87 -113 113 0 63 131 147 295 189 93 24 351 67 480 80 142 15 707 6 865
-13z"/>
<path d="M13896 24130 c-209 -26 -375 -104 -484 -226 -46 -51 -92 -129 -107
-181 l-6 -23 735 0 c538 0 736 3 736 11 0 23 -89 136 -158 201 -148 139 -326
211 -554 222 -51 3 -124 1 -162 -4z"/>
<path d="M22450 24133 c-202 -21 -371 -97 -506 -226 -67 -63 -154 -175 -154
-198 0 -5 315 -9 736 -9 l735 0 -7 23 c-37 121 -149 246 -280 314 -147 77
-352 114 -524 96z"/>
<path d="M13140 8247 l0 -632 -632 -259 c-348 -143 -648 -267 -666 -276 l-33
-16 278 -137 c841 -413 1762 -751 2882 -1058 140 -38 256 -71 258 -72 2 -2
-31 -120 -73 -262 -41 -142 -72 -261 -67 -266 24 -23 603 -162 951 -228 1082
-206 2148 -264 3202 -175 698 59 1437 185 2075 356 83 22 154 43 158 48 6 5
-82 329 -139 512 -4 13 5 19 38 28 955 248 1891 568 2677 917 304 134 706 332
695 342 -5 4 -279 119 -609 254 -330 135 -624 256 -652 268 l-53 22 0 633 c0
349 -2 634 -5 634 -2 0 -51 -21 -107 -46 -879 -392 -1904 -673 -3013 -828
-168 -24 -580 -72 -670 -78 l-39 -3 -36 -225 c-32 -200 -35 -226 -21 -231 9
-4 95 -14 191 -23 327 -32 321 -29 90 -54 -671 -73 -1389 -104 -1920 -83 -455
18 -968 57 -1255 94 l-100 14 80 7 c44 4 143 14 220 22 77 8 147 14 155 14 41
1 41 9 4 236 -19 120 -38 222 -42 225 -4 3 -106 16 -227 28 -1229 122 -2477
435 -3435 861 -52 23 -110 49 -127 56 l-33 14 0 -633z m735 18 c500 -167 1166
-346 1750 -469 94 -20 177 -40 187 -44 14 -6 -15 -108 -234 -822 -137 -448
-253 -819 -257 -823 -9 -9 -483 109 -795 198 -667 192 -1392 455 -1946 708
l-55 25 30 12 c17 6 217 86 445 179 l415 167 3 516 2 515 133 -49 c72 -27 218
-78 322 -113z m9711 -1045 c240 -96 438 -178 440 -181 4 -6 -274 -130 -505
-224 -470 -192 -1113 -410 -1641 -555 -236 -65 -631 -162 -637 -157 -9 9 -503
1633 -499 1642 2 6 55 20 117 33 414 85 1050 245 1453 367 191 57 574 186 741
248 l90 34 3 -516 2 -516 436 -175z m-7413 -34 c802 -142 2081 -192 3122 -120
514 35 819 71 1265 151 25 5 26 2 289 -849 145 -469 266 -858 268 -865 6 -15
-17 -21 -297 -83 -1741 -384 -3359 -382 -5105 6 -137 31 -255 59 -261 62 -8 5
75 287 255 870 265 860 266 863 291 859 14 -2 92 -16 173 -31z"/>
</g>
</svg>
